<svg xmlns="http://www.w3.org/2000/svg" version="1.1" xmlns:xlink="http://www.w3.org/1999/xlink" width="133.91" height="122.64"><svg xmlns="http://www.w3.org/2000/svg" version="1.1" xmlns:xlink="http://www.w3.org/1999/xlink" width="133.91" height="122.64"><svg id="Layer_2" data-name="Layer 2" xmlns="http://www.w3.org/2000/svg" viewBox="0 0 133.91 122.64">
  <defs>
    <style>
      .cls-1 {
        fill: #d71920;
      }
    </style>
  </defs>
  <g id="Layer_2-2" data-name="Layer 2">
    <g>
      <path class="cls-1" d="M132.07,30.67c-1.84-7.9-5.5-15.32-11.17-21.12-25.65-26.27-60.08,6.57-68.61,38.85h0c-5.15,17.62-7.08,38.58,4.11,54.59-15.78-.09-37.51-3.93-43.7-20.4-4.14-17.3,16.12-29.21,30.77-32.61.6-2.33,1.29-4.73,2.11-7C-25.65,55.51-6.93,122.31,57.21,122.6c58.67,1.72,84.05-52.55,74.86-91.92ZM112.31,47.68c-1.41,13.28-11.89,47.54-33.33,51.77-2.59.51-5.27.41-7.78-.4-17.94-5.83-18.06-35.94-12.19-51.02,29.97-.12,40.99,16.13,40.99,16.13,1.35-3.59,2.44-7.34,3.24-11.18-16.52-12.08-41.66-11.28-41.66-11.28C76.94,7.26,117.59.11,112.31,47.68Z"></path>
      <path class="cls-1" d="M57.33,82.3c.05.17.1.34.15.52-.06-.2-.11-.38-.15-.52Z"></path>
    </g>
  </g>
</svg></svg><style>@media (prefers-color-scheme: light) { :root { filter: none; } }
@media (prefers-color-scheme: dark) { :root { filter: none; } }
</style></svg>